<svg xmlns="http://www.w3.org/2000/svg" viewBox="0 0 658 163" width="658" height="163"><title>Krunchbox No Shadow No Tagline New Logo-ai</title><style>		.s0 { fill: #231f20 } 		.s1 { fill: #00adee } 		.s2 { fill: #eef0f2 } 		.s3 { fill: #27abe1 } 		.s4 { fill: #9cdbf7 } 		.s5 { fill: #2975bb } 	</style><g id="Layer 1"><g id="&lt;Group&gt;"><g id="&lt;Group&gt;"><g id="&lt;Group&gt;"><path id="&lt;Compound Path&gt;" class="s0" d="m183.3 93h0.2c1.2-1.8 3-4.1 4.5-5.9l15.1-17.7h11.2l-19.8 21.1 22.6 30.2h-11.4l-17.7-24.6-4.7 5.3v19.3h-9.3v-75.2h9.3z"></path><path id="&lt;Compound Path&gt;" class="s0" d="m223.4 85.4c0-6-0.1-11.2-0.4-16h8.1l0.4 10.1h0.4c2.3-6.9 7.9-11.2 14.2-11.2 1 0 1.8 0.1 2.6 0.3v8.8c-0.9-0.2-1.9-0.3-3.2-0.3-6.5 0-11.2 5-12.5 11.9-0.2 1.3-0.4 2.8-0.4 4.4v27.3h-9.2z"></path><path id="&lt;Compound Path&gt;" class="s0" d="m298.8 106.7c0 5.3 0.1 10 0.5 14h-8.3l-0.5-8.3h-0.2c-2.5 4.1-7.9 9.5-17 9.5-8 0-17.7-4.5-17.7-22.5v-30h9.3v28.4c0 9.8 3 16.4 11.5 16.4 6.2 0 10.6-4.4 12.3-8.5 0.5-1.4 0.8-3.1 0.8-4.8v-31.5h9.3z"></path><path id="&lt;Compound Path&gt;" class="s0" d="m312.2 83.3c0-5.3-0.1-9.6-0.4-13.9h8.2l0.6 8.5h0.2c2.5-4.8 8.4-9.6 16.9-9.6 7.1 0 18.1 4.2 18.1 21.8v30.6h-9.3v-29.5c0-8.3-3.1-15.2-11.9-15.2-6.1 0-10.9 4.4-12.5 9.6-0.4 1.1-0.6 2.7-0.6 4.3v30.8h-9.3z"></path><path id="&lt;Compound Path&gt;" class="s0" d="m405.4 118.8c-2.4 1.3-7.8 3.1-14.7 3.1-15.5 0-25.5-10.6-25.5-26.3 0-15.8 10.8-27.2 27.5-27.2 5.5 0 10.4 1.4 12.9 2.6l-2.1 7.2c-2.2-1.2-5.7-2.4-10.8-2.4-11.8 0-18.1 8.7-18.1 19.4 0 11.9 7.6 19.2 17.8 19.2 5.3 0 8.8-1.4 11.4-2.6z"></path><path id="&lt;Compound Path&gt;" class="s0" d="m414.2 45.5h9.3v32h0.3c1.4-2.6 3.8-5 6.6-6.6 2.8-1.6 6.1-2.6 9.6-2.6 6.8 0 17.9 4.2 17.9 21.9v30.5h-9.4v-29.4c0-8.3-3-15.3-11.8-15.3-6.1 0-10.8 4.3-12.5 9.3-0.6 1.3-0.7 2.7-0.7 4.5v30.9h-9.3z"></path><path id="&lt;Compound Path&gt;" fill-rule="evenodd" class="s1" d="m469.6 45.5h16.1v29.6h0.2c3.1-4.5 8.5-7.3 15.7-7.3 12.4 0 21.5 10.2 21.4 26.1 0 18.7-11.8 28-23.7 28-6.1 0-11.9-2.2-15.6-8.4h-0.2l-0.6 7.2h-13.7c0.2-3.4 0.4-9.6 0.4-15.4zm16.1 53.1q0 1.6 0.3 2.9c1.1 4.3 4.8 7.6 9.5 7.6 6.9 0 11.1-5.3 11.1-14.6 0-8-3.6-14.4-11.1-14.4-4.4 0-8.4 3.3-9.5 7.9-0.2 1-0.3 2-0.3 3z"></path><path id="&lt;Compound Path&gt;" fill-rule="evenodd" class="s1" d="m582.3 94.2c0 19-13.4 27.7-27.3 27.7-15.1 0-26.8-10-26.8-26.7 0-16.7 11-27.4 27.7-27.4 15.9 0 26.4 10.9 26.4 26.4zm-37.5 0.6c0 8.9 3.7 15.5 10.6 15.5 6.3 0 10.3-6.2 10.3-15.5 0-7.8-3-15.6-10.3-15.6-7.7 0-10.6 7.9-10.6 15.6z"></path><path id="&lt;Compound Path&gt;" class="s1" d="m599.9 68.9l5.1 8.6c1.5 2.6 2.9 5.3 4.3 7.7h0.2c1.3-2.7 2.6-5.4 4-7.9l4.6-8.4h17.4l-17 24.7 17.2 27.1h-18.2l-5.2-9.3c-1.5-2.5-2.7-5.2-4-7.8h-0.3c-1.3 2.7-2.7 5.3-3.9 7.8l-4.9 9.3h-17.7l17.6-26.4-17.2-25.4z"></path></g><g id="&lt;Group&gt;"><path id="&lt;Compound Path&gt;" class="s1" d="m642.8 71.2h-2.4v-1.6h6.8v1.6h-2.5v6.5h-1.9z"></path><path id="&lt;Compound Path&gt;" class="s1" d="m655.6 74.5c0-1-0.1-2.2-0.1-3.5-0.3 1.1-0.7 2.3-1 3.4l-1.1 3.2h-1.6l-0.9-3.2c-0.3-1.1-0.6-2.3-0.8-3.4-0.1 1.2-0.1 2.5-0.2 3.6l-0.1 3.1h-1.8l0.5-8.1h2.7l0.8 2.7c0.3 0.9 0.5 1.9 0.7 2.9h0.1c0.2-1 0.5-2.1 0.8-3l1-2.6h2.6l0.4 8.1h-1.9z"></path></g></g></g><g id="&lt;Group&gt;"><path id="&lt;Path&gt;" class="s2" d="m141.2 124.2l-69.2 38.4-71.2-38.9v-68.2l141.3 12.7z"></path><path id="&lt;Compound Path&gt;" class="s3" d="m72 74.9v9l-34.1 39.5-14.9-60-22.2 32.8v-60.2zm-36.9 62l36.9-42.6v68.3l-71.2-38.8v-15.6l19.9-29.4z"></path><path id="&lt;Path&gt;" class="s4" d="m142.5 35.6l-71.4 39.1-70.4-38.7 70.4-35.4z"></path><path id="&lt;Path&gt;" class="s5" d="m142.4 35.5v88.1l-18.9 10.5v-30.2l-14.4 8.2v29.9l-37.1 20.6-0.3-88.1z"></path><path id="&lt;Path&gt;" class="s3" d="m87.6 87.5l14.3-8.2v66.7l-14.3 7.9z"></path></g></g></svg>